<svg xmlns="http://www.w3.org/2000/svg" xmlns:xlink="http://www.w3.org/1999/xlink" width="1000" zoomAndPan="magnify" viewBox="0 0 750 749.999995" height="1000" preserveAspectRatio="xMidYMid meet" version="1.0"><defs><clipPath id="b632305565"><path d="M 104.71875 26.34375 L 645.46875 26.34375 L 645.46875 723.84375 L 104.71875 723.84375 Z M 104.71875 26.34375 " clip-rule="nonzero"/></clipPath></defs><g clip-path="url(#b632305565)"><path fill="#000000" d="M 645.464844 671.160156 C 645.464844 485.035156 524.316406 334.242188 375.09375 334.242188 C 225.867188 334.242188 104.71875 485.035156 104.71875 671.160156 C 104.71875 700.183594 225.867188 723.84375 375.09375 723.84375 C 524.316406 723.84375 645.464844 700.183594 645.464844 671.160156 Z M 375.09375 26.34375 C 456.488281 26.34375 522.425781 92.277344 522.425781 173.667969 C 522.425781 255.058594 456.488281 320.992188 375.09375 320.992188 C 293.695312 320.992188 227.757812 255.058594 227.757812 173.667969 C 227.757812 92.277344 293.695312 26.34375 375.09375 26.34375 Z M 375.09375 26.34375 " fill-opacity="1" fill-rule="evenodd"/></g></svg>